<svg xmlns="http://www.w3.org/2000/svg" width="78" height="14.93" viewBox="0 0 78 14.93"><defs><style>.cls-1{fill:#fff}</style></defs><title>an-logo-white</title><g id="Слой_2" data-name="Слой 2"><path class="cls-1" d="M68 14.32h5a5 5 0 0 0 0-10v2.14a2.86 2.86 0 0 1 .24 5.71H70.1V0H68zm-1.09-2.38V4.32h-5a5 5 0 0 0 0 10v-2.13a2.86 2.86 0 0 1-.24-5.71h3.14v5.46zM12.45 5.91H10V4.85h4V3.77H8.58V9.5h3.9c1.36 0 2-.35 2-1.79s-.67-1.8-2.03-1.8zm-.13 2.45H10V7h2.42c.71 0 .78.21.78.64s-.14.72-.88.72zM5.07 3.77H3L0 9.5h1.6l.74-1.45h3.39l.74 1.45h1.61zM2.9 7L4 4.84h.07L5.18 7zm16.76 1.36H17.9c-.78 0-1.1-.16-1.1-1V5.9c0-.9.19-1.06 1.1-1.06h1.76c.79 0 1.1.26 1.1.86h1.37c0-1.61-.85-2-2.2-2h-2.29c-1.68 0-2.22.47-2.22 2.15v1.62c0 1.53.5 2 2.09 2h2.55c1.69 0 2.06-.46 2.07-2h-1.38c0 .74-.28.89-1.09.89zm7.95-4.66H25.1c-1.56 0-2.11.47-2.11 2v1.8c0 1.39.58 2 2.11 2h2.52c1.6 0 2.07-.53 2.07-2V5.74C29.68 4.13 29 3.7 27.61 3.7zm.7 3.69c0 .78-.2 1-1.07 1h-1.81c-.83 0-1.07-.21-1.07-1V5.87c0-.82.24-1 1.1-1h1.77c.82 0 1.1.19 1.1 1zm2.75-.13c0 .83-.13 1.1-.84 1.1V9.5h.58c1 0 1.63-.61 1.63-2.08V4.91h3.22V9.5H37V3.77h-6zM45.33 3.7h-2.52c-1.56 0-2.11.46-2.11 2V6h-1.38V3.77h-1.37V9.5h1.37V7.1h1.38v.44c0 1.39.58 2 2.11 2h2.52c1.6 0 2.07-.53 2.07-2V5.73c0-1.61-.65-2.03-2.07-2.03zM46 7.39c0 .78-.2 1-1.07 1h-1.79c-.83 0-1.07-.21-1.07-1V5.87c0-.82.24-1 1.1-1h1.76c.82 0 1.1.19 1.1 1zm2.19-3.62v1.14h2.39V9.5h1.37V4.91h2.41V3.77h-6.17zM.7 12.47h1.77v-1.1h.69v2.87h-.69V13H.7v1.2H0v-2.83h.7zm3.51-1.1h2.94v.54H4.9v.63h2.18V13H4.9v.66h2.25v.54H4.21zm4.41 1.37v-1.37h2.88v2.3h.32v1.26h-.62v-.69H8.71v.69h-.63v-1.26h.19a1.16 1.16 0 0 0 .35-.93zm2.18-.8H9.28v.94a1.27 1.27 0 0 1-.23.79h1.76zm1.96-.57h2.07c.64 0 1 .19 1 .72s-.12.56-.36.64a.59.59 0 0 1 .47.67c0 .62-.31.84-1 .84h-2.18zm.69 1.16h1.4c.19 0 .28-.14.28-.34a.26.26 0 0 0-.29-.29h-1.4zm0 1.17h1.38c.37 0 .42-.08.42-.34s0-.32-.39-.32h-1.4zm4.25-.03h.1l1.75-2.3h1.15v2.87H20v-2.3h-.09l-1.73 2.3H17v-2.87h.69zm6.5-.67h-.35l-1.25 1.23h-.92l1.58-1.53-1.51-1.35h1l1.13 1.07h.34v-1.05h.69v1.07h.34l1.13-1.07h1l-1.51 1.35 1.58 1.53h-.92L25.24 13h-.36v1.23h-.68zm4.89.67h.1l1.75-2.3h1.15v2.87h-.69v-2.3h-.1l-1.73 2.3H28.4v-2.87h.69zm5.4-2.3l1 2.3 1-2.3h1.28v2.87H37v-2.3h-.09l-1 2.3H35l-1-2.3h-.1v2.3h-.69v-2.87zm6.59 2.87h-1.27c-.77 0-1.06-.29-1.06-1v-.9c0-.79.28-1 1.06-1h1.26c.71 0 1 .22 1 1v.9c.04.76-.19 1-.99 1zM40 13.67h.91c.44 0 .54-.09.54-.48v-.76c0-.42-.14-.51-.55-.51H40c-.43 0-.55.11-.55.52v.77c-.01.36.11.46.55.46zm6.45-.42c0 .77-.19 1-1 1h-1.32c-.79 0-1-.24-1-1v-.82c0-.84.27-1.08 1.11-1.08h1.14c.68 0 1.11.19 1.11 1h-.69c0-.3-.15-.43-.55-.43h-.88c-.46 0-.55.08-.55.53v.71c0 .44.16.52.55.52h.88c.41 0 .55-.07.55-.42zm4.01-1.88v.57h-1.21v2.3h-.69v-2.3h-1.2v-.57zm1.54 0v1.07h1.25c.68 0 1 .17 1 .9s-.34.9-1 .9h-2v-2.87zm0 2.3h1.19c.37 0 .42-.08.42-.33s0-.32-.39-.32H52z" id="Layer_1" data-name="Layer 1"/></g></svg>